<mxfile host="app.diagrams.net" modified="2020-12-12T20:04:06.622Z" agent="5.0 (Macintosh; Intel Mac OS X 10_15_7) AppleWebKit/537.36 (KHTML, like Gecko) Chrome/87.0.4280.88 Safari/537.36" etag="PrGgExNPw8T5xDEzlGIR" version="13.10.4" type="github">
  <diagram id="c9A48i2Z3C_fcETPWEAF" name="Page-1">
    <mxGraphModel dx="1282" dy="708" grid="1" gridSize="10" guides="1" tooltips="1" connect="1" arrows="1" fold="1" page="1" pageScale="1" pageWidth="1200" pageHeight="2600" math="0" shadow="0">
      <root>
        <mxCell id="0" />
        <mxCell id="1" parent="0" />
        <mxCell id="0EjpPawCw-7GW1LaDqYE-2" value="&lt;div style=&quot;text-align: left&quot;&gt;&lt;span&gt;Card&lt;br&gt;&lt;br&gt;&lt;/span&gt;&lt;/div&gt;&lt;div style=&quot;text-align: left&quot;&gt;&lt;span&gt;- cardSuit : string&lt;/span&gt;&lt;/div&gt;&lt;div style=&quot;text-align: left&quot;&gt;&lt;span&gt;- cardNumber : int&lt;/span&gt;&lt;/div&gt;&lt;div style=&quot;text-align: left&quot;&gt;&lt;br&gt;&lt;/div&gt;&lt;div style=&quot;text-align: left&quot;&gt;&lt;span&gt;+ setCardSuit(cardSuit : string) : void&lt;/span&gt;&lt;/div&gt;&lt;div style=&quot;text-align: left&quot;&gt;&lt;span&gt;+ getCardSuit() : string&lt;/span&gt;&lt;/div&gt;&lt;div style=&quot;text-align: left&quot;&gt;&lt;span&gt;+ setCardNumber(cardNumber : int) : void&lt;/span&gt;&lt;/div&gt;&lt;div style=&quot;text-align: left&quot;&gt;&lt;span&gt;+getCardNumber() : int&lt;/span&gt;&lt;/div&gt;" style="rounded=0;whiteSpace=wrap;html=1;" vertex="1" parent="1">
          <mxGeometry x="310" y="180" width="300" height="160" as="geometry" />
        </mxCell>
        <mxCell id="0EjpPawCw-7GW1LaDqYE-3" value="" style="endArrow=none;html=1;exitX=-0.001;exitY=0.209;exitDx=0;exitDy=0;exitPerimeter=0;entryX=1.001;entryY=0.21;entryDx=0;entryDy=0;entryPerimeter=0;" edge="1" parent="1" source="0EjpPawCw-7GW1LaDqYE-2" target="0EjpPawCw-7GW1LaDqYE-2">
          <mxGeometry width="50" height="50" relative="1" as="geometry">
            <mxPoint x="310" y="185.04999999999995" as="sourcePoint" />
            <mxPoint x="610" y="211" as="targetPoint" />
          </mxGeometry>
        </mxCell>
        <mxCell id="0EjpPawCw-7GW1LaDqYE-4" value="" style="endArrow=none;html=1;exitX=0;exitY=0.195;exitDx=0;exitDy=0;exitPerimeter=0;entryX=0.999;entryY=0.191;entryDx=0;entryDy=0;entryPerimeter=0;" edge="1" parent="1">
          <mxGeometry width="50" height="50" relative="1" as="geometry">
            <mxPoint x="310.3" y="259.99999999999994" as="sourcePoint" />
            <mxPoint x="610" y="261.24000000000007" as="targetPoint" />
          </mxGeometry>
        </mxCell>
      </root>
    </mxGraphModel>
  </diagram>
</mxfile>
